<svg width="103" height="42" viewBox="0 0 103 42" fill="none" xmlns="http://www.w3.org/2000/svg">
<path d="M36.976 20.904C36.848 20.904 36.72 20.872 36.624 20.776C36.464 20.616 36.432 20.392 36.432 20.232C36.432 20.008 36.464 19.848 36.496 19.688C36.944 17.768 37.712 15.08 38.224 13.192C39.024 10.248 40.176 7.4 41.328 4.584C41.456 4.264 41.584 4.008 41.744 3.752C41.872 3.496 42.096 3.368 42.384 3.336C42.512 3.368 42.704 3.432 42.832 3.56C42.896 3.592 42.96 3.72 42.992 3.848C42.448 5.256 41.84 6.664 41.296 8.104C40.432 10.216 39.696 12.328 39.152 14.504C39.024 15.016 38.896 15.72 38.896 15.848C39.152 15.528 40.592 14.184 41.04 13.928C41.296 13.736 41.552 13.672 41.808 13.672C41.936 13.672 42.096 13.704 42.256 13.736C42.64 14.056 42.768 14.376 42.768 14.76C42.768 14.952 42.736 15.112 42.704 15.336C42.576 15.912 42.48 16.52 42.48 17.128C42.48 17.32 42.48 17.544 42.512 17.768C42.608 18.28 42.736 18.728 43.376 18.952C43.92 19.048 44.624 18.408 45.136 17.832C45.584 17.288 46.032 16.808 46.48 16.264C46.704 16.008 47.12 15.496 47.344 15.592C47.632 15.624 47.76 15.752 47.856 16.136C47.856 16.232 47.856 16.36 47.76 16.424C46.992 17.512 46.224 18.472 45.296 19.336C44.784 19.816 44.176 20.2 43.472 20.2C42.832 20.2 42.256 19.88 41.872 19.368C41.36 18.696 41.2 17.832 41.2 17C41.2 16.424 41.232 15.912 41.328 15.368C39.632 16.616 38.48 19.208 37.488 20.776C37.264 20.872 37.136 20.904 36.976 20.904ZM47.8253 21.864C46.2892 21.864 45.7452 20.776 45.7452 19.496C45.7452 18.952 45.8412 18.408 46.0012 17.832C46.6412 16.04 47.5693 14.472 48.8493 13.064C49.5853 12.424 50.1933 12.168 50.8653 12.168C51.2812 12.168 51.7293 12.424 51.9213 12.936C52.0173 13.16 52.0173 13.32 52.0173 13.544C52.0173 13.928 51.9213 14.248 51.7293 14.632C50.8653 16.136 49.6173 17.256 48.0813 17.96C47.7933 18.088 47.5053 18.184 47.1852 18.312C47.0252 18.728 46.9292 19.24 46.9292 19.624C46.9292 20.104 47.0572 20.456 47.3773 20.616C47.5373 20.712 47.6973 20.744 47.9213 20.744C48.5613 20.744 49.2973 20.36 50.2253 19.848C52.4973 18.536 53.9373 17.512 56.2413 16.04C56.5293 15.88 56.7853 15.72 56.9773 15.624H57.1373C57.4893 15.624 57.5533 15.88 57.5533 16.232C57.5213 16.424 57.3613 16.616 57.1693 16.744C56.6253 17.128 56.1133 17.448 55.4733 17.896C53.7133 18.952 52.6253 19.752 50.7693 20.84C50.2573 21.096 49.8093 21.352 49.3293 21.544C48.8493 21.768 48.3372 21.864 47.8253 21.864ZM47.6653 16.872C48.8493 16.68 50.7693 14.888 50.8973 13.576C50.8653 13.416 50.7693 13.32 50.5773 13.32C50.1933 13.352 49.8733 13.608 49.4893 14.056C48.7853 14.888 48.1773 15.848 47.6653 16.872ZM56.872 19.688C56.104 19.624 55.976 19.336 55.848 18.984C55.816 18.792 55.816 18.6 55.816 18.44C55.816 17.896 55.944 17.32 56.456 16.104C57 14.984 57.672 13.992 58.504 13.192C59.656 12.04 60.328 11.912 61.704 11.912C61.768 11.912 61.768 11.944 61.864 11.816C62.12 11.432 62.376 11.048 62.632 10.728C62.76 10.6 62.856 10.6 62.984 10.536H63.112C63.304 10.536 63.528 10.632 63.656 10.984C63.688 11.112 63.656 11.304 63.656 11.304C63.24 12.168 62.856 13.096 62.6 14.056C62.28 15.016 61.992 16.008 62.088 17.032C62.088 17.448 62.12 18.184 62.408 18.44C62.536 18.536 62.664 18.568 62.856 18.568C63.56 18.568 64.456 17.576 65.064 16.808C65.352 16.424 66.056 15.528 66.344 15.528H66.44C66.696 15.528 66.856 15.72 66.856 15.976C66.856 16.04 66.856 16.168 66.76 16.296C65.992 17.416 65.032 18.6 64.072 19.24C63.656 19.56 63.304 19.688 62.6 19.688C61.64 19.688 61.096 18.984 60.936 18.088C60.808 17.416 60.808 16.872 60.808 15.976C60.232 16.616 59.72 17.256 59.208 17.832C58.824 18.312 58.44 18.728 58.024 19.176C57.672 19.56 57.256 19.624 56.872 19.688ZM57.128 18.184C57.288 18.056 57.512 17.896 57.64 17.768C58.888 16.392 59.944 14.952 60.936 13.352C61.096 13.16 61.128 13.064 60.808 13.16C59.976 13.352 59.464 13.864 58.92 14.504C58.024 15.656 57.128 17.128 57.128 18.184ZM63.8187 26.344C63.6267 26.216 63.5307 26.024 63.4987 25.736C63.8827 22.952 64.5227 20.136 65.3227 17.384C66.1227 14.696 66.8908 11.944 67.7228 9.256L68.0108 8.296C68.2668 7.528 68.4268 6.952 68.6828 6.184C69.0028 5.416 70.4108 1.544 70.6028 1.128C70.8588 0.903999 71.0508 0.903999 71.2108 0.935999C71.3388 0.935999 71.4348 1.064 71.4988 1.128C71.5948 1.256 71.5948 1.384 71.5948 1.512C71.5948 1.704 71.4988 1.928 71.4348 2.152C70.9548 3.432 70.4748 4.712 70.0268 5.992C69.7708 6.76 68.5548 10.6 68.1708 11.752C67.7868 12.936 67.4988 14.12 67.1468 15.336C66.8268 16.552 66.4428 17.768 66.0907 18.984C65.8027 20.2 65.5467 21.416 65.2267 22.632C64.9387 23.816 64.8427 25.064 64.5547 26.12C64.2667 26.344 64.0427 26.408 63.8187 26.344ZM69.1515 25.96C68.9275 25.96 68.7995 25.864 68.6075 25.608C68.5115 25.352 68.5115 25.064 68.5115 24.712C68.5115 24.424 68.5115 24.104 68.5435 23.784C68.8955 20.648 69.6635 17.64 70.5595 14.696C71.1035 12.968 72.2235 9.256 72.7675 7.592C72.8955 7.272 73.0235 6.792 73.2155 6.312C71.6155 6.44 68.0955 7.656 66.5595 7.816C66.2395 7.688 66.1115 7.528 66.0795 7.272C66.1115 7.176 66.0795 7.048 66.1755 6.952C66.3675 6.664 66.7195 6.568 67.0715 6.504C68.1595 6.248 71.1035 5.48 72.2235 5.224C72.7035 5.128 73.2155 5 73.7275 4.872C74.1435 3.56 74.8795 2.088 75.2955 1.896C75.6475 1.928 75.9035 2.056 75.9675 2.408C75.9675 3.08 75.5195 3.304 74.9115 4.712C76.1915 4.488 77.5995 4.136 78.6555 3.944L81.9515 3.304C82.3035 3.336 82.6235 3.432 82.7515 3.816C82.7515 4.232 82.4955 4.392 82.1755 4.52L77.9835 5.224C76.8635 5.416 75.9355 5.64 74.4955 6.024C73.9195 7.336 72.3515 12.904 71.2315 16.744C70.4315 19.688 69.8875 22.632 69.6635 25.512C69.5035 25.832 69.3755 25.896 69.1515 25.96ZM74.7075 18.984C74.5795 18.984 74.5155 18.952 74.3875 18.856C74.3235 18.792 74.2595 18.664 74.1955 18.536V18.312C74.1955 18.024 74.2595 17.704 74.3235 17.416C75.0595 14.44 75.9555 11.496 77.1075 8.616C77.5875 7.4 78.0355 6.12 78.5475 4.84C78.8995 3.944 79.2515 3.08 79.7955 2.344C79.9555 2.312 80.0835 2.312 80.1795 2.312C80.3075 2.312 80.4035 2.344 80.5955 2.472C80.6595 2.568 80.6915 2.696 80.6915 2.792C80.6915 2.984 80.5635 3.208 80.4355 3.432C79.0275 6.664 77.8435 9.992 76.6915 13.352C76.5635 13.704 76.3715 14.056 76.4675 14.472C77.3635 13.864 78.0995 13.032 79.1875 12.808H79.3795C79.6675 12.808 79.9555 12.904 80.0835 13.352C80.1475 13.576 80.1475 13.8 80.1475 13.992C80.1475 14.504 80.0835 15.08 80.0835 15.656C80.0835 16.136 80.0835 16.552 80.2115 17.032C80.4355 17.448 80.7235 17.768 81.1075 17.704C82.4515 17.384 83.3475 16.136 84.4995 15.528C84.8195 15.592 84.9475 15.72 85.0435 15.976V16.04C85.0435 16.296 84.8835 16.552 84.6915 16.744C83.9235 17.416 83.1235 18.056 82.2275 18.568C81.8435 18.792 81.4275 18.856 81.0435 18.856C80.0835 18.856 79.3155 18.28 79.0275 17.16C78.8675 16.296 78.8675 14.856 78.8675 14.184C77.9715 14.696 77.2675 15.464 76.6915 16.264C76.0515 17.032 75.6995 18.056 75.2195 18.792C75.0595 18.92 74.8995 18.984 74.7075 18.984ZM81.9087 25.256C81.8127 25.256 81.7487 25.224 81.6527 25.192C81.4927 25 81.3967 24.84 81.3967 24.616C81.3967 24.456 81.4287 24.296 81.4927 24.104C81.7487 23.304 81.9407 22.504 82.1967 21.672C83.4128 17.768 85.2368 11.24 86.5488 7.336C87.2528 5.416 88.0208 3.56 88.8528 1.672C89.0448 1.288 89.2048 0.903999 89.4928 0.647999C89.8128 0.487999 90.0048 0.424 90.2608 0.551998C90.6128 0.807999 90.5808 1.16 90.5168 1.448C90.4848 1.576 90.4848 1.672 90.4528 1.704C89.9408 2.28 89.6208 2.92 89.3648 3.592C88.0208 6.792 86.9328 10.024 86.0048 13.352C84.4367 18.664 83.6047 21.352 82.8047 24.04C82.6767 24.456 82.5807 24.872 82.2927 25.192C82.1647 25.224 82.0367 25.256 81.9087 25.256ZM83.1797 41C81.9317 41.064 80.6517 40.36 80.4917 38.504C80.3637 37.16 80.6837 35.976 81.3237 34.824C82.7957 32.36 84.8757 30.632 87.5957 29.672C89.2278 29.096 90.8918 28.808 92.5878 28.68C92.8118 28.68 93.0358 28.648 93.2278 28.584C93.3558 28.456 93.4838 28.328 93.5477 28.168C95.3718 24.712 97.0038 21.128 97.9638 17.32C98.2838 16.296 98.4758 15.24 98.4118 14.184C98.4118 13.928 98.4118 13.672 98.2198 13.448C98.0918 13.352 98.0278 13.32 97.8998 13.32C97.7078 13.32 97.5478 13.416 97.3878 13.48C96.7798 13.8 96.1718 14.184 95.7558 14.696C94.7318 15.784 93.7398 16.904 92.7798 18.024C91.7558 19.304 90.7958 20.616 89.6438 21.768C89.3558 22.056 89.0678 22.376 88.7157 22.632C88.4917 22.76 88.2997 22.824 88.0757 22.824C87.8197 22.824 87.5637 22.696 87.3077 22.44C87.0837 22.024 87.0197 21.512 87.0197 21.032C87.0197 20.872 87.0197 20.712 87.0517 20.52C87.1797 19.816 87.2757 19.08 87.5317 18.408C88.0437 16.904 88.5877 15.4 89.1318 13.96C89.2598 13.608 89.3878 13.32 89.6438 13.16C89.8997 12.968 90.0918 12.968 90.2838 13.096C90.5398 13.288 90.6038 13.544 90.5078 13.8C90.3798 14.12 90.2518 14.504 90.0918 14.856C89.3878 16.648 88.7157 18.44 88.3317 20.328C88.2997 20.456 88.2357 20.616 88.2357 20.744C88.2357 20.872 88.2997 21 88.4277 21.128C88.8117 21.096 88.9718 20.776 89.1958 20.52C90.2518 19.208 91.3078 17.832 92.3958 16.552C93.2918 15.528 94.1878 14.6 95.0838 13.608C95.7238 12.968 96.4918 12.52 97.3238 12.168C97.6438 12.04 97.8998 12.008 98.0918 12.008C98.8278 12.008 99.3078 12.456 99.5638 13.32C99.6918 13.704 99.7238 14.088 99.7238 14.472C99.7238 14.76 99.6918 15.112 99.6278 15.464C99.3398 17.544 98.6998 19.56 97.9318 21.48C97.0677 23.784 96.1398 25.992 94.9878 28.168C94.8918 28.328 94.8278 28.52 94.6998 28.808C96.5238 29.288 98.2838 29.8 99.3398 31.336C99.3398 31.784 99.1158 31.976 98.7318 32.008C97.8998 31.784 97.3878 30.952 96.5238 30.632C95.7238 30.344 94.8918 30.184 94.0918 29.992C93.6758 30.376 93.4518 30.824 93.2278 31.208C91.7878 33.416 90.4118 35.688 88.6837 37.672C87.8197 38.696 86.8277 39.592 85.6757 40.296C84.9077 40.712 84.0757 40.968 83.1797 41ZM83.2437 39.72C83.9797 39.72 84.6517 39.464 85.2917 39.08C86.2837 38.44 87.0837 37.672 87.8517 36.776C89.5798 34.728 90.9878 32.424 92.4598 30.056C92.1718 30.056 92.0438 29.992 91.9158 29.992C89.8358 30.216 87.7878 30.696 85.9957 31.784C83.5957 33.256 81.8997 35.208 81.6437 38.152C81.8997 39.048 81.8997 39.048 82.4117 39.592C82.6997 39.688 82.9877 39.72 83.2437 39.72Z" fill="white"/>
<path d="M8.97144 16.625L21.5288 9.375" stroke="#34BF5B" stroke-width="6" stroke-linecap="round"/>
<path opacity="0.2" d="M8.97144 9.375L21.5288 16.625" stroke="#34BF5B" stroke-width="6" stroke-linecap="round"/>
<path opacity="0.6" d="M15.25 20.25L15.25 5.75" stroke="#34BF5B" stroke-width="6" stroke-linecap="round"/>
<path d="M8.296 36.272C8.168 36.272 8.04 36.208 7.912 36.144C7.848 36.048 7.784 36.016 7.72 35.888C7.592 35.632 7.528 35.312 7.432 35.024C7.144 33.904 7.048 32.752 6.888 31.6C6.888 31.44 6.824 31.312 6.824 31.152C6.824 31.024 6.888 30.832 6.888 30.704C7.08 28.464 7.432 26.224 8.2 24.048C8.936 22.096 9.736 20.144 10.792 18.288C11.816 16.464 13.096 14.8 14.6 13.264C14.824 13.04 15.016 12.88 15.24 12.72C15.4 12.72 15.592 12.656 15.656 12.656C16.04 12.656 16.104 12.848 16.168 13.296C16.008 13.808 15.592 14.128 15.24 14.448C14.12 15.6 13.16 16.88 12.296 18.288C10.632 21.072 9.384 24.016 8.68 27.184C8.424 28.4 8.328 29.648 8.328 30.832C8.328 31.664 8.328 32.432 8.424 33.2C8.488 34.032 8.744 34.864 8.872 35.664V35.824C8.808 36.048 8.68 36.176 8.456 36.272H8.296Z" fill="#120D1E"/>
</svg>
