<svg width="103" height="41" viewBox="0 0 103 41" fill="none" xmlns="http://www.w3.org/2000/svg">
<path d="M36.9759 20.904C36.8479 20.904 36.7199 20.872 36.6239 20.776C36.4639 20.616 36.4319 20.392 36.4319 20.232C36.4319 20.008 36.4639 19.848 36.4959 19.688C36.9439 17.768 37.7119 15.08 38.2239 13.192C39.0239 10.248 40.1759 7.39998 41.3279 4.58398C41.4559 4.26398 41.5839 4.00798 41.7439 3.75198C41.8719 3.49598 42.0959 3.36798 42.3839 3.33598C42.5119 3.36798 42.7039 3.43198 42.8319 3.55998C42.8959 3.59198 42.9599 3.71998 42.9919 3.84798C42.4479 5.25598 41.8399 6.66398 41.2959 8.10398C40.4319 10.216 39.6959 12.328 39.1519 14.504C39.0239 15.016 38.8959 15.72 38.8959 15.848C39.1519 15.528 40.5919 14.184 41.0399 13.928C41.2959 13.736 41.5519 13.672 41.8079 13.672C41.9359 13.672 42.0959 13.704 42.2559 13.736C42.6399 14.056 42.7679 14.376 42.7679 14.76C42.7679 14.952 42.7359 15.112 42.7039 15.336C42.5759 15.912 42.4799 16.52 42.4799 17.128C42.4799 17.32 42.4799 17.544 42.5119 17.768C42.6079 18.28 42.7359 18.728 43.3759 18.952C43.9199 19.048 44.6239 18.408 45.1359 17.832C45.5839 17.288 46.0319 16.808 46.4799 16.264C46.7039 16.008 47.1199 15.496 47.3439 15.592C47.6319 15.624 47.7599 15.752 47.8559 16.136C47.8559 16.232 47.8559 16.36 47.7599 16.424C46.9919 17.512 46.2239 18.472 45.2959 19.336C44.7839 19.816 44.1759 20.2 43.4719 20.2C42.8319 20.2 42.2559 19.88 41.8719 19.368C41.3599 18.696 41.1999 17.832 41.1999 17C41.1999 16.424 41.2319 15.912 41.3279 15.368C39.6319 16.616 38.4799 19.208 37.4879 20.776C37.2639 20.872 37.1359 20.904 36.9759 20.904Z" fill="black"/>
<path d="M47.8251 21.864C46.2891 21.864 45.7451 20.776 45.7451 19.496C45.7451 18.952 45.8411 18.408 46.0011 17.832C46.6411 16.04 47.5691 14.472 48.8491 13.064C49.5851 12.424 50.1931 12.168 50.8651 12.168C51.2811 12.168 51.7291 12.424 51.9211 12.936C52.0171 13.16 52.0171 13.32 52.0171 13.544C52.0171 13.928 51.9211 14.248 51.7291 14.632C50.8651 16.136 49.6171 17.256 48.0811 17.96C47.7931 18.088 47.5051 18.184 47.1851 18.312C47.0251 18.728 46.9291 19.24 46.9291 19.624C46.9291 20.104 47.0571 20.456 47.3771 20.616C47.5371 20.712 47.6971 20.744 47.9211 20.744C48.5611 20.744 49.2971 20.36 50.2251 19.848C52.4971 18.536 53.9371 17.512 56.2411 16.04C56.5291 15.88 56.7851 15.72 56.9771 15.624H57.1371C57.4891 15.624 57.5531 15.88 57.5531 16.232C57.5211 16.424 57.3611 16.616 57.1691 16.744C56.6251 17.128 56.1131 17.448 55.4731 17.896C53.7131 18.952 52.6251 19.752 50.7691 20.84C50.2571 21.096 49.8091 21.352 49.3291 21.544C48.8491 21.768 48.3371 21.864 47.8251 21.864ZM47.6651 16.872C48.8491 16.68 50.7691 14.888 50.8971 13.576C50.8651 13.416 50.7691 13.32 50.5771 13.32C50.1931 13.352 49.8731 13.608 49.4891 14.056C48.7851 14.888 48.1771 15.848 47.6651 16.872Z" fill="black"/>
<path d="M56.8719 19.688C56.1039 19.624 55.9759 19.336 55.8479 18.984C55.8159 18.792 55.8159 18.6 55.8159 18.44C55.8159 17.896 55.9439 17.32 56.4559 16.104C56.9999 14.984 57.6719 13.992 58.5039 13.192C59.6559 12.04 60.3279 11.912 61.7039 11.912C61.7679 11.912 61.7679 11.944 61.8639 11.816C62.1199 11.432 62.3759 11.048 62.6319 10.728C62.7599 10.6 62.8559 10.6 62.9839 10.536H63.1119C63.3039 10.536 63.5279 10.632 63.6559 10.984C63.6879 11.112 63.6559 11.304 63.6559 11.304C63.2399 12.168 62.8559 13.096 62.5999 14.056C62.2799 15.016 61.9919 16.008 62.0879 17.032C62.0879 17.448 62.1199 18.184 62.4079 18.44C62.5359 18.536 62.6639 18.568 62.8559 18.568C63.5599 18.568 64.4559 17.576 65.0639 16.808C65.3519 16.424 66.0559 15.528 66.3439 15.528H66.4399C66.6959 15.528 66.8559 15.72 66.8559 15.976C66.8559 16.04 66.8559 16.168 66.7599 16.296C65.9919 17.416 65.0319 18.6 64.0719 19.24C63.6559 19.56 63.3039 19.688 62.5999 19.688C61.6399 19.688 61.0959 18.984 60.9359 18.088C60.8079 17.416 60.8079 16.872 60.8079 15.976C60.2319 16.616 59.7199 17.256 59.2079 17.832C58.8239 18.312 58.4399 18.728 58.0239 19.176C57.6719 19.56 57.2559 19.624 56.8719 19.688ZM57.1279 18.184C57.2879 18.056 57.5119 17.896 57.6399 17.768C58.8879 16.392 59.9439 14.952 60.9359 13.352C61.0959 13.16 61.1279 13.064 60.8079 13.16C59.9759 13.352 59.4639 13.864 58.9199 14.504C58.0239 15.656 57.1279 17.128 57.1279 18.184Z" fill="black"/>
<path d="M63.8186 26.344C63.6266 26.216 63.5306 26.024 63.4986 25.736C63.8826 22.952 64.5226 20.136 65.3226 17.384C66.1226 14.696 66.8906 11.944 67.7226 9.25598L68.0106 8.29598C68.2666 7.52798 68.4266 6.95198 68.6826 6.18398C69.0026 5.41598 70.4106 1.54398 70.6026 1.12798C70.8586 0.903979 71.0506 0.903979 71.2106 0.935979C71.3386 0.935979 71.4346 1.06398 71.4986 1.12798C71.5946 1.25598 71.5946 1.38398 71.5946 1.51198C71.5946 1.70398 71.4986 1.92798 71.4346 2.15198C70.9546 3.43198 70.4746 4.71198 70.0266 5.99198C69.7706 6.75998 68.5546 10.6 68.1706 11.752C67.7866 12.936 67.4986 14.12 67.1466 15.336C66.8266 16.552 66.4426 17.768 66.0906 18.984C65.8026 20.2 65.5466 21.416 65.2266 22.632C64.9386 23.816 64.8426 25.064 64.5546 26.12C64.2666 26.344 64.0426 26.408 63.8186 26.344Z" fill="black"/>
<path d="M69.1514 25.96C68.9274 25.96 68.7994 25.864 68.6074 25.608C68.5114 25.352 68.5114 25.064 68.5114 24.712C68.5114 24.424 68.5114 24.104 68.5434 23.784C68.8954 20.648 69.6634 17.64 70.5594 14.696C71.1034 12.968 72.2234 9.25598 72.7674 7.59198C72.8954 7.27198 73.0234 6.79198 73.2154 6.31198C71.6154 6.43998 68.0954 7.65598 66.5594 7.81598C66.2394 7.68798 66.1114 7.52798 66.0794 7.27198C66.1114 7.17598 66.0794 7.04798 66.1754 6.95198C66.3674 6.66398 66.7194 6.56798 67.0714 6.50398C68.1594 6.24798 71.1034 5.47998 72.2234 5.22398C72.7034 5.12798 73.2154 4.99998 73.7274 4.87198C74.1434 3.55998 74.8794 2.08798 75.2954 1.89598C75.6474 1.92798 75.9034 2.05598 75.9674 2.40798C75.9674 3.07998 75.5194 3.30398 74.9114 4.71198C76.1914 4.48798 77.5994 4.13598 78.6554 3.94398L81.9514 3.30398C82.3034 3.33598 82.6234 3.43198 82.7514 3.81598C82.7514 4.23198 82.4954 4.39198 82.1754 4.51998L77.9834 5.22398C76.8634 5.41598 75.9354 5.63998 74.4954 6.02398C73.9194 7.33598 72.3514 12.904 71.2314 16.744C70.4314 19.688 69.8874 22.632 69.6634 25.512C69.5034 25.832 69.3754 25.896 69.1514 25.96Z" fill="black"/>
<path d="M74.7074 18.984C74.5794 18.984 74.5154 18.952 74.3874 18.856C74.3234 18.792 74.2594 18.664 74.1954 18.536V18.312C74.1954 18.024 74.2594 17.704 74.3234 17.416C75.0594 14.44 75.9554 11.496 77.1074 8.61598C77.5874 7.39998 78.0354 6.11998 78.5474 4.83998C78.8994 3.94398 79.2514 3.07998 79.7954 2.34398C79.9554 2.31198 80.0834 2.31198 80.1794 2.31198C80.3074 2.31198 80.4034 2.34398 80.5954 2.47198C80.6594 2.56798 80.6914 2.69598 80.6914 2.79198C80.6914 2.98398 80.5634 3.20798 80.4354 3.43198C79.0274 6.66398 77.8434 9.99198 76.6914 13.352C76.5634 13.704 76.3714 14.056 76.4674 14.472C77.3634 13.864 78.0994 13.032 79.1874 12.808H79.3794C79.6674 12.808 79.9554 12.904 80.0834 13.352C80.1474 13.576 80.1474 13.8 80.1474 13.992C80.1474 14.504 80.0834 15.08 80.0834 15.656C80.0834 16.136 80.0834 16.552 80.2114 17.032C80.4354 17.448 80.7234 17.768 81.1074 17.704C82.4514 17.384 83.3474 16.136 84.4994 15.528C84.8194 15.592 84.9474 15.72 85.0434 15.976V16.04C85.0434 16.296 84.8834 16.552 84.6914 16.744C83.9234 17.416 83.1234 18.056 82.2274 18.568C81.8434 18.792 81.4274 18.856 81.0434 18.856C80.0834 18.856 79.3154 18.28 79.0274 17.16C78.8674 16.296 78.8674 14.856 78.8674 14.184C77.9714 14.696 77.2674 15.464 76.6914 16.264C76.0514 17.032 75.6994 18.056 75.2194 18.792C75.0594 18.92 74.8994 18.984 74.7074 18.984Z" fill="black"/>
<path d="M81.9086 25.256C81.8126 25.256 81.7486 25.224 81.6526 25.192C81.4926 25 81.3966 24.84 81.3966 24.616C81.3966 24.456 81.4286 24.296 81.4926 24.104C81.7486 23.304 81.9406 22.504 82.1966 21.672C83.4126 17.768 85.2366 11.24 86.5486 7.33598C87.2526 5.41598 88.0206 3.55998 88.8526 1.67198C89.0446 1.28798 89.2046 0.903979 89.4926 0.647979C89.8126 0.487979 90.0046 0.42398 90.2606 0.551978C90.6126 0.807979 90.5806 1.15998 90.5166 1.44798C90.4846 1.57598 90.4846 1.67198 90.4526 1.70398C89.9406 2.27998 89.6206 2.91998 89.3646 3.59198C88.0206 6.79198 86.9326 10.024 86.0046 13.352C84.4366 18.664 83.6046 21.352 82.8046 24.04C82.6766 24.456 82.5806 24.872 82.2926 25.192C82.1646 25.224 82.0366 25.256 81.9086 25.256Z" fill="black"/>
<path d="M83.1796 41C81.9316 41.064 80.6516 40.36 80.4916 38.504C80.3636 37.16 80.6836 35.976 81.3236 34.824C82.7956 32.36 84.8756 30.632 87.5956 29.672C89.2276 29.096 90.8916 28.808 92.5876 28.68C92.8116 28.68 93.0356 28.648 93.2276 28.584C93.3556 28.456 93.4836 28.328 93.5476 28.168C95.3716 24.712 97.0036 21.128 97.9636 17.32C98.2836 16.296 98.4756 15.24 98.4116 14.184C98.4116 13.928 98.4116 13.672 98.2196 13.448C98.0916 13.352 98.0276 13.32 97.8996 13.32C97.7076 13.32 97.5476 13.416 97.3876 13.48C96.7796 13.8 96.1716 14.184 95.7556 14.696C94.7316 15.784 93.7396 16.904 92.7796 18.024C91.7556 19.304 90.7956 20.616 89.6436 21.768C89.3556 22.056 89.0676 22.376 88.7156 22.632C88.4916 22.76 88.2996 22.824 88.0756 22.824C87.8196 22.824 87.5636 22.696 87.3076 22.44C87.0836 22.024 87.0196 21.512 87.0196 21.032C87.0196 20.872 87.0196 20.712 87.0516 20.52C87.1796 19.816 87.2756 19.08 87.5316 18.408C88.0436 16.904 88.5876 15.4 89.1316 13.96C89.2596 13.608 89.3876 13.32 89.6436 13.16C89.8996 12.968 90.0916 12.968 90.2836 13.096C90.5396 13.288 90.6036 13.544 90.5076 13.8C90.3796 14.12 90.2516 14.504 90.0916 14.856C89.3876 16.648 88.7156 18.44 88.3316 20.328C88.2996 20.456 88.2356 20.616 88.2356 20.744C88.2356 20.872 88.2996 21 88.4276 21.128C88.8116 21.096 88.9716 20.776 89.1956 20.52C90.2516 19.208 91.3076 17.832 92.3956 16.552C93.2916 15.528 94.1876 14.6 95.0836 13.608C95.7236 12.968 96.4916 12.52 97.3236 12.168C97.6436 12.04 97.8996 12.008 98.0916 12.008C98.8276 12.008 99.3076 12.456 99.5636 13.32C99.6916 13.704 99.7236 14.088 99.7236 14.472C99.7236 14.76 99.6916 15.112 99.6276 15.464C99.3396 17.544 98.6996 19.56 97.9316 21.48C97.0676 23.784 96.1396 25.992 94.9876 28.168C94.8916 28.328 94.8276 28.52 94.6996 28.808C96.5236 29.288 98.2836 29.8 99.3396 31.336C99.3396 31.784 99.1156 31.976 98.7316 32.008C97.8996 31.784 97.3876 30.952 96.5236 30.632C95.7236 30.344 94.8916 30.184 94.0916 29.992C93.6756 30.376 93.4516 30.824 93.2276 31.208C91.7876 33.416 90.4116 35.688 88.6836 37.672C87.8196 38.696 86.8276 39.592 85.6756 40.296C84.9076 40.712 84.0756 40.968 83.1796 41ZM83.2436 39.72C83.9796 39.72 84.6516 39.464 85.2916 39.08C86.2836 38.44 87.0836 37.672 87.8516 36.776C89.5796 34.728 90.9876 32.424 92.4596 30.056C92.1716 30.056 92.0436 29.992 91.9156 29.992C89.8356 30.216 87.7876 30.696 85.9956 31.784C83.5956 33.256 81.8996 35.208 81.6436 38.152C81.8996 39.048 81.8996 39.048 82.4116 39.592C82.6996 39.688 82.9876 39.72 83.2436 39.72Z" fill="black"/>
<path d="M8.97144 16.625L21.5288 9.375" stroke="#34BF5B" stroke-width="6" stroke-linecap="round"/>
<path opacity="0.2" d="M8.97144 9.375L21.5288 16.625" stroke="#34BF5B" stroke-width="6" stroke-linecap="round"/>
<path opacity="0.6" d="M15.25 20.25L15.25 5.75" stroke="#34BF5B" stroke-width="6" stroke-linecap="round"/>
<path d="M8.29597 36.272C8.16797 36.272 8.03997 36.208 7.91197 36.144C7.84797 36.048 7.78397 36.016 7.71997 35.888C7.59197 35.632 7.52797 35.312 7.43197 35.024C7.14397 33.904 7.04797 32.752 6.88797 31.6C6.88797 31.44 6.82397 31.312 6.82397 31.152C6.82397 31.024 6.88797 30.832 6.88797 30.704C7.07997 28.464 7.43197 26.224 8.19997 24.048C8.93597 22.096 9.73597 20.144 10.792 18.288C11.816 16.464 13.096 14.8 14.6 13.264C14.824 13.04 15.016 12.88 15.24 12.72C15.4 12.72 15.592 12.656 15.656 12.656C16.04 12.656 16.104 12.848 16.168 13.296C16.008 13.808 15.592 14.128 15.24 14.448C14.12 15.6 13.16 16.88 12.296 18.288C10.632 21.072 9.38397 24.016 8.67997 27.184C8.42397 28.4 8.32797 29.648 8.32797 30.832C8.32797 31.664 8.32797 32.432 8.42397 33.2C8.48797 34.032 8.74397 34.864 8.87197 35.664V35.824C8.80797 36.048 8.67997 36.176 8.45597 36.272H8.29597Z" fill="black"/>
</svg>
