<svg width="79" height="52" viewBox="0 0 79 52" fill="none" xmlns="http://www.w3.org/2000/svg">
<path fill-rule="evenodd" clip-rule="evenodd" d="M50.1702 23.0843C51.8454 19.7343 52.3021 15.396 51.129 11.018C49.9559 6.64 47.3913 3.1113 44.2656 1.04772C42.5904 4.39769 42.1338 8.736 43.3068 13.114C44.4799 17.492 47.0445 21.0207 50.1702 23.0843Z" fill="white"/>
<path fill-rule="evenodd" clip-rule="evenodd" d="M53.0856 23.8663C56.8244 23.6421 60.8099 21.8684 64.0148 18.6635C67.2198 15.4585 68.9935 11.473 69.2177 7.73427C65.4789 7.95849 61.4934 9.73214 58.2885 12.9371C55.0835 16.1421 53.3098 20.1275 53.0856 23.8663Z" fill="white"/>
<path fill-rule="evenodd" clip-rule="evenodd" d="M22.38 18.3662C25.73 16.6909 30.0684 16.2342 34.4466 17.4073C38.8246 18.5804 42.3534 21.1451 44.417 24.2708C41.067 25.9461 36.7286 26.4028 32.3504 25.2297C27.9723 24.0566 24.4436 21.4919 22.38 18.3662Z" fill="white"/>
<path fill-rule="evenodd" clip-rule="evenodd" d="M2.13368 32.8751C4.19724 29.7493 7.72602 27.1846 12.1041 26.0115C16.4821 24.8384 20.8204 25.2951 24.1703 26.9702C22.1068 30.096 18.578 32.6607 14.1999 33.8338C9.82189 35.0069 5.48364 34.5502 2.13368 32.8751Z" fill="white"/>
<path fill-rule="evenodd" clip-rule="evenodd" d="M57.638 50.9515C59.3132 47.6015 59.7698 43.2632 58.5967 38.8852C57.4237 34.5072 54.8591 30.9785 51.7334 28.9149C50.0582 32.2649 49.6015 36.6032 50.7746 40.9812C51.9477 45.3592 54.5123 48.8879 57.638 50.9515Z" fill="white"/>
<path fill-rule="evenodd" clip-rule="evenodd" d="M48.8183 28.1337C48.594 31.8725 46.8204 35.8579 43.6154 39.0629C40.4104 42.2679 36.425 44.0415 32.6862 44.2657C32.9104 40.527 34.6841 36.5415 37.8891 33.3365C41.094 30.1316 45.0795 28.3579 48.8183 28.1337Z" fill="white"/>
<path fill-rule="evenodd" clip-rule="evenodd" d="M53.8673 26.7813C57.2173 25.106 61.5557 24.6493 65.9338 25.8224C70.3118 26.9955 73.8406 29.5602 75.9042 32.6859C72.5542 34.3611 68.2158 34.8178 63.8377 33.6447C59.4596 32.4716 55.9309 29.907 53.8673 26.7813Z" fill="white"/>
</svg>
