<svg width="121" height="80" viewBox="0 0 121 80" fill="none" xmlns="http://www.w3.org/2000/svg">
<path opacity="0.5" fill-rule="evenodd" clip-rule="evenodd" d="M82.0259 41.631C77.1121 45.7235 69.971 48.299 62.0228 48.299C54.0764 48.299 46.9367 45.7246 42.0231 41.6338C46.9368 37.5413 54.0779 34.9658 62.0261 34.9658C69.9725 34.9658 77.1122 37.5402 82.0259 41.631Z" fill="white"/>
<path fill-rule="evenodd" clip-rule="evenodd" d="M116.691 21.6102C114.482 27.6108 109.585 33.4112 102.703 37.385C95.8206 41.3584 88.3499 42.6987 82.049 41.6125C84.2584 35.6119 89.1548 29.8115 96.0376 25.8377C102.92 21.8643 110.39 20.524 116.691 21.6102Z" fill="white"/>
<path opacity="0.2" d="M7.37646 61.6576C13.6778 62.7444 21.1492 61.4042 28.0319 57.4304C34.9144 53.4569 39.8106 47.6568 42.0202 41.6566C35.7189 40.5699 28.2475 41.9101 21.3647 45.8838C14.4823 49.8574 9.58607 55.6574 7.37646 61.6576Z" fill="white"/>
<path opacity="0.2" d="M47.3765 61.6576C53.6778 62.7444 61.1492 61.4042 68.0319 57.4304C74.9144 53.4569 79.8106 47.6568 82.0202 41.6566C75.7189 40.5699 68.2475 41.9101 61.3647 45.8838C54.4823 49.8574 49.5861 55.6574 47.3765 61.6576Z" fill="white"/>
</svg>
